<svg width="40" height="40" viewBox="0 0 40 40" fill="none" xmlns="http://www.w3.org/2000/svg">
<rect width="40" height="40" rx="8" fill="#30CB51"/>
<mask id="mask0_80_748" style="mask-type:alpha" maskUnits="userSpaceOnUse" x="8" y="8" width="24" height="24">
<rect x="8" y="8" width="24" height="24" fill="#D9D9D9"/>
</mask>
<g mask="url(#mask0_80_748)">
<path d="M13 23.95L19 27.425V20.575L13 17.1V23.95ZM21 27.425L27 23.95V17.1L21 20.575V27.425ZM14.075 15.425L20 18.85L25.925 15.425L20 12L14.075 15.425ZM11 25.125V16.025C11 15.6583 11.0875 15.325 11.2625 15.025C11.4375 14.725 11.6833 14.4833 12 14.3L19 10.275C19.3167 10.0917 19.65 10 20 10C20.35 10 20.6833 10.0917 21 10.275L28 14.3C28.3167 14.4833 28.5625 14.725 28.7375 15.025C28.9125 15.325 29 15.6583 29 16.025V23.975C29 24.3417 28.9125 24.675 28.7375 24.975C28.5625 25.275 28.3167 25.5167 28 25.7L21 29.725C20.6833 29.9083 20.35 30 20 30C19.65 30 19.3167 29.9083 19 29.725L11 25.125Z" fill="white"/>
</g>
</svg>
