<svg width="40" height="40" viewBox="0 0 40 40" fill="none" xmlns="http://www.w3.org/2000/svg">
<rect width="40" height="40" rx="8" fill="#2EABE2"/>
<mask id="mask0_92_775" style="mask-type:alpha" maskUnits="userSpaceOnUse" x="8" y="8" width="24" height="24">
<rect x="8" y="8" width="24" height="24" fill="#D9D9D9"/>
</mask>
<g mask="url(#mask0_92_775)">
<path d="M17 26H23C23.2833 26 23.5208 25.9042 23.7125 25.7125C23.9042 25.5208 24 25.2833 24 25C24 24.7167 23.9042 24.4792 23.7125 24.2875C23.5208 24.0958 23.2833 24 23 24H17C16.7167 24 16.4792 24.0958 16.2875 24.2875C16.0958 24.4792 16 24.7167 16 25C16 25.2833 16.0958 25.5208 16.2875 25.7125C16.4792 25.9042 16.7167 26 17 26ZM17 22H23C23.2833 22 23.5208 21.9042 23.7125 21.7125C23.9042 21.5208 24 21.2833 24 21C24 20.7167 23.9042 20.4792 23.7125 20.2875C23.5208 20.0958 23.2833 20 23 20H17C16.7167 20 16.4792 20.0958 16.2875 20.2875C16.0958 20.4792 16 20.7167 16 21C16 21.2833 16.0958 21.5208 16.2875 21.7125C16.4792 21.9042 16.7167 22 17 22ZM14 30C13.45 30 12.9792 29.8042 12.5875 29.4125C12.1958 29.0208 12 28.55 12 28V12C12 11.45 12.1958 10.9792 12.5875 10.5875C12.9792 10.1958 13.45 10 14 10H21.175C21.4417 10 21.6958 10.05 21.9375 10.15C22.1792 10.25 22.3917 10.3917 22.575 10.575L27.425 15.425C27.6083 15.6083 27.75 15.8208 27.85 16.0625C27.95 16.3042 28 16.5583 28 16.825V28C28 28.55 27.8042 29.0208 27.4125 29.4125C27.0208 29.8042 26.55 30 26 30H14ZM21 16V12H14V28H26V17H22C21.7167 17 21.4792 16.9042 21.2875 16.7125C21.0958 16.5208 21 16.2833 21 16Z" fill="white"/>
</g>
</svg>
