<svg width="40" height="40" viewBox="0 0 40 40" fill="none" xmlns="http://www.w3.org/2000/svg">
<rect width="40" height="40" rx="8" fill="#2EABE2"/>
<mask id="mask0_92_698" style="mask-type:alpha" maskUnits="userSpaceOnUse" x="8" y="8" width="24" height="24">
<rect x="8" y="8" width="24" height="24" fill="#D9D9D9"/>
</mask>
<g mask="url(#mask0_92_698)">
<path d="M25 24C24.1667 24 23.4583 23.7083 22.875 23.125C22.2917 22.5417 22 21.8333 22 21C22 20.1667 22.2917 19.4583 22.875 18.875C23.4583 18.2917 24.1667 18 25 18C25.8333 18 26.5417 18.2917 27.125 18.875C27.7083 19.4583 28 20.1667 28 21C28 21.8333 27.7083 22.5417 27.125 23.125C26.5417 23.7083 25.8333 24 25 24ZM25 22C25.2833 22 25.5208 21.9042 25.7125 21.7125C25.9042 21.5208 26 21.2833 26 21C26 20.7167 25.9042 20.4792 25.7125 20.2875C25.5208 20.0958 25.2833 20 25 20C24.7167 20 24.4792 20.0958 24.2875 20.2875C24.0958 20.4792 24 20.7167 24 21C24 21.2833 24.0958 21.5208 24.2875 21.7125C24.4792 21.9042 24.7167 22 25 22ZM19 31V28.1C19 27.75 19.0833 27.4208 19.25 27.1125C19.4167 26.8042 19.65 26.5583 19.95 26.375C20.4833 26.0583 21.0458 25.7958 21.6375 25.5875C22.2292 25.3792 22.8333 25.225 23.45 25.125L25 27L26.55 25.125C27.1667 25.225 27.7667 25.3792 28.35 25.5875C28.9333 25.7958 29.4917 26.0583 30.025 26.375C30.325 26.5583 30.5625 26.8042 30.7375 27.1125C30.9125 27.4208 31 27.75 31 28.1V31H19ZM20.975 29H24.05L22.7 27.35C22.4 27.4333 22.1083 27.5417 21.825 27.675C21.5417 27.8083 21.2583 27.95 20.975 28.1V29ZM25.95 29H29V28.1C28.7333 27.9333 28.4583 27.7875 28.175 27.6625C27.8917 27.5375 27.6 27.4333 27.3 27.35L25.95 29ZM13 29C12.45 29 11.9792 28.8042 11.5875 28.4125C11.1958 28.0208 11 27.55 11 27V13C11 12.45 11.1958 11.9792 11.5875 11.5875C11.9792 11.1958 12.45 11 13 11H27C27.55 11 28.0208 11.1958 28.4125 11.5875C28.8042 11.9792 29 12.45 29 13V18C28.7333 17.6667 28.4417 17.35 28.125 17.05C27.8083 16.75 27.4333 16.55 27 16.45V13H13V27H17.15C17.1 27.1833 17.0625 27.3667 17.0375 27.55C17.0125 27.7333 17 27.9167 17 28.1V29H13ZM15 17H22C22.4333 16.6667 22.9083 16.4167 23.425 16.25C23.9417 16.0833 24.4667 16 25 16V15H15V17ZM15 21H20C20 20.65 20.0375 20.3083 20.1125 19.975C20.1875 19.6417 20.2917 19.3167 20.425 19H15V21ZM15 25H18.45C18.6333 24.85 18.8292 24.7167 19.0375 24.6C19.2458 24.4833 19.4583 24.375 19.675 24.275V23H15V25ZM13 27V13V16.425V16V27Z" fill="white"/>
</g>
</svg>
