<svg width="40" height="40" viewBox="0 0 40 40" fill="none" xmlns="http://www.w3.org/2000/svg">
<mask id="mask0_62_112" style="mask-type:alpha" maskUnits="userSpaceOnUse" x="0" y="0" width="40" height="40">
<rect width="40" height="40" fill="#D9D9D9"/>
</mask>
<g mask="url(#mask0_62_112)">
<path d="M9.44442 36.6666C8.69442 36.6666 8.04396 36.3911 7.49305 35.8402C6.94213 35.2893 6.66667 34.6388 6.66667 33.8888V6.111C6.66667 5.361 6.94213 4.71054 7.49305 4.15963C8.04396 3.60871 8.69442 3.33325 9.44442 3.33325H22.1805C22.5592 3.33325 22.92 3.40732 23.2631 3.55546C23.6062 3.70363 23.9028 3.90271 24.1528 4.15271L32.5139 12.5138C32.7639 12.7638 32.963 13.0604 33.1111 13.4035C33.2593 13.7466 33.3333 14.1074 33.3333 14.486V19.8888H30.5556V14.9999H23.0555C22.662 14.9999 22.3322 14.8668 22.066 14.6006C21.7998 14.3344 21.6667 14.0045 21.6667 13.611V6.111H9.44442V33.8888H21.1111V36.6666H9.44442ZM31.1667 24.6527L32.5417 26.0277L25.8333 32.7222V34.7222H27.8333L34.5417 28.0277L35.9028 29.3888L29.0417 36.2499C28.8935 36.3981 28.7364 36.5045 28.5703 36.5694C28.4043 36.6342 28.2327 36.6666 28.0555 36.6666H24.5833C24.3982 36.6666 24.2361 36.5971 24.0973 36.4583C23.9584 36.3194 23.8889 36.1573 23.8889 35.9721V32.4999C23.8889 32.3228 23.9213 32.1512 23.9861 31.9851C24.0509 31.8191 24.1574 31.662 24.3056 31.5138L31.1667 24.6527ZM35.9028 29.3888L31.1667 24.6527L33.6667 22.1527C33.9352 21.8842 34.2593 21.7499 34.6389 21.7499C35.0185 21.7499 35.3426 21.8842 35.6111 22.1527L38.4028 24.9444C38.6713 25.2129 38.8055 25.5369 38.8055 25.9166C38.8055 26.2962 38.6713 26.6203 38.4028 26.8888L35.9028 29.3888Z" fill="#1C1B1F"/>
</g>
</svg>
