<svg width="56" height="56" viewBox="0 0 56 56" fill="none" xmlns="http://www.w3.org/2000/svg">
<rect width="56" height="56" rx="4" fill="#61C3FF"/>
<mask id="mask0_82_540" style="mask-type:alpha" maskUnits="userSpaceOnUse" x="8" y="8" width="40" height="40">
<rect x="8" y="8" width="40" height="40" fill="#D9D9D9"/>
</mask>
<g mask="url(#mask0_82_540)">
<path d="M17.4444 44.6666C16.6944 44.6666 16.044 44.3911 15.4931 43.8402C14.9421 43.2893 14.6667 42.6388 14.6667 41.8888V14.111C14.6667 13.361 14.9421 12.7105 15.4931 12.1596C16.044 11.6087 16.6944 11.3333 17.4444 11.3333H31.9167L41.3334 20.7499V41.8888C41.3334 42.6388 41.0579 43.2893 40.507 43.8402C39.9561 44.3911 39.3056 44.6666 38.5556 44.6666H17.4444ZM30.5278 22.0555V14.111H17.4444V41.8888H38.5556V22.0555H30.5278Z" fill="white"/>
</g>
</svg>
