<svg width="40" height="40" viewBox="0 0 40 40" fill="none" xmlns="http://www.w3.org/2000/svg">
<rect width="40" height="40" rx="8" fill="#2EABE2"/>
<mask id="mask0_92_1004" style="mask-type:alpha" maskUnits="userSpaceOnUse" x="8" y="8" width="24" height="24">
<rect x="8" y="8" width="24" height="24" fill="#D9D9D9"/>
</mask>
<g mask="url(#mask0_92_1004)">
<path d="M14 30C13.45 30 12.9792 29.8042 12.5875 29.4125C12.1958 29.0208 12 28.55 12 28V12C12 11.45 12.1958 10.9792 12.5875 10.5875C12.9792 10.1958 13.45 10 14 10H21.175C21.4417 10 21.6958 10.05 21.9375 10.15C22.1792 10.25 22.3917 10.3917 22.575 10.575L27.425 15.425C27.6083 15.6083 27.75 15.8208 27.85 16.0625C27.95 16.3042 28 16.5583 28 16.825V28C28 28.55 27.8042 29.0208 27.4125 29.4125C27.0208 29.8042 26.55 30 26 30H14ZM21 16V12H14V28H26V17H22C21.7167 17 21.4792 16.9042 21.2875 16.7125C21.0958 16.5208 21 16.2833 21 16Z" fill="white"/>
</g>
</svg>
