<svg width="56" height="56" viewBox="0 0 56 56" fill="none" xmlns="http://www.w3.org/2000/svg">
<rect width="56" height="56" rx="4" fill="#61C3FF"/>
<mask id="mask0_82_557" style="mask-type:alpha" maskUnits="userSpaceOnUse" x="8" y="8" width="40" height="40">
<rect x="8" y="8" width="40" height="40" fill="#D9D9D9"/>
</mask>
<g mask="url(#mask0_82_557)">
<path d="M18 37.4446C17.25 37.4446 16.5995 37.1692 16.0486 36.6182C15.4977 36.0673 15.2222 35.4169 15.2222 34.6669V14.1112C15.2222 13.3612 15.4977 12.7108 16.0486 12.1599C16.5995 11.609 17.25 11.3335 18 11.3335H27.5834L30.3611 14.1112H43.5556C44.3056 14.1112 44.9561 14.3867 45.507 14.9377C46.0579 15.4886 46.3334 16.139 46.3334 16.889V34.6669C46.3334 35.4169 46.0579 36.0673 45.507 36.6182C44.9561 37.1692 44.3056 37.4446 43.5556 37.4446H18ZM18 34.6669H43.5556V16.889H29.2083L26.4306 14.1112H18V34.6669ZM41.6111 43.0002H12.4444C11.6944 43.0002 11.044 42.7247 10.4931 42.1738C9.94215 41.6229 9.66669 40.9724 9.66669 40.2224V16.889H12.4444V40.2224H41.6111V43.0002ZM22.2778 30.4724H39.2778L33.7361 23.0835L29.2222 29.0835L26.125 25.4863L22.2778 30.4724Z" fill="white"/>
</g>
</svg>
