<svg width="40" height="40" viewBox="0 0 40 40" fill="none" xmlns="http://www.w3.org/2000/svg">
<rect width="40" height="40" rx="8" fill="#FB9502"/>
<mask id="mask0_199_2617" style="mask-type:alpha" maskUnits="userSpaceOnUse" x="8" y="8" width="24" height="24">
<rect x="8" y="8" width="24" height="24" fill="#D9D9D9"/>
</mask>
<g mask="url(#mask0_199_2617)">
<path d="M14 25H19V23H14V25ZM24 25H26V23H24V25ZM14 21H19V19H14V21ZM24 21H26V15H24V21ZM14 17H19V15H14V17ZM12 29C11.45 29 10.9792 28.8042 10.5875 28.4125C10.1958 28.0208 10 27.55 10 27V13C10 12.45 10.1958 11.9792 10.5875 11.5875C10.9792 11.1958 11.45 11 12 11H28C28.55 11 29.0208 11.1958 29.4125 11.5875C29.8042 11.9792 30 12.45 30 13V27C30 27.55 29.8042 28.0208 29.4125 28.4125C29.0208 28.8042 28.55 29 28 29H12ZM12 27H28V13H12V27Z" fill="white"/>
</g>
</svg>
