<svg width="40" height="40" viewBox="0 0 40 40" fill="none" xmlns="http://www.w3.org/2000/svg">
<rect width="40" height="40" rx="8" fill="#017EFF"/>
<mask id="mask0_92_1097" style="mask-type:alpha" maskUnits="userSpaceOnUse" x="8" y="8" width="24" height="24">
<rect x="8" y="8" width="24" height="24" fill="#D9D9D9"/>
</mask>
<g mask="url(#mask0_92_1097)">
<path d="M20 30C18.6333 30 17.3417 29.7375 16.125 29.2125C14.9083 28.6875 13.8458 27.9708 12.9375 27.0625C12.0292 26.1542 11.3125 25.0917 10.7875 23.875C10.2625 22.6583 10 21.3667 10 20C10 18.6167 10.2625 17.3208 10.7875 16.1125C11.3125 14.9042 12.0292 13.8458 12.9375 12.9375C13.8458 12.0292 14.9083 11.3125 16.125 10.7875C17.3417 10.2625 18.6333 10 20 10C21.3833 10 22.6792 10.2625 23.8875 10.7875C25.0958 11.3125 26.1542 12.0292 27.0625 12.9375C27.9708 13.8458 28.6875 14.9042 29.2125 16.1125C29.7375 17.3208 30 18.6167 30 20V21.45C30 22.4333 29.6625 23.2708 28.9875 23.9625C28.3125 24.6542 27.4833 25 26.5 25C25.9 25 25.3417 24.8667 24.825 24.6C24.3083 24.3333 23.8833 23.9833 23.55 23.55C23.1 24 22.5708 24.3542 21.9625 24.6125C21.3542 24.8708 20.7 25 20 25C18.6167 25 17.4375 24.5125 16.4625 23.5375C15.4875 22.5625 15 21.3833 15 20C15 18.6167 15.4875 17.4375 16.4625 16.4625C17.4375 15.4875 18.6167 15 20 15C21.3833 15 22.5625 15.4875 23.5375 16.4625C24.5125 17.4375 25 18.6167 25 20V21.45C25 21.9333 25.15 22.3125 25.45 22.5875C25.75 22.8625 26.1 23 26.5 23C26.9 23 27.25 22.8625 27.55 22.5875C27.85 22.3125 28 21.9333 28 21.45V20C28 17.8167 27.2125 15.9375 25.6375 14.3625C24.0625 12.7875 22.1833 12 20 12C17.8167 12 15.9375 12.7875 14.3625 14.3625C12.7875 15.9375 12 17.8167 12 20C12 22.1833 12.7875 24.0625 14.3625 25.6375C15.9375 27.2125 17.8167 28 20 28H24C24.2833 28 24.5208 28.0958 24.7125 28.2875C24.9042 28.4792 25 28.7167 25 29C25 29.2833 24.9042 29.5208 24.7125 29.7125C24.5208 29.9042 24.2833 30 24 30H20ZM20 23C20.8333 23 21.5417 22.7083 22.125 22.125C22.7083 21.5417 23 20.8333 23 20C23 19.1667 22.7083 18.4583 22.125 17.875C21.5417 17.2917 20.8333 17 20 17C19.1667 17 18.4583 17.2917 17.875 17.875C17.2917 18.4583 17 19.1667 17 20C17 20.8333 17.2917 21.5417 17.875 22.125C18.4583 22.7083 19.1667 23 20 23Z" fill="white"/>
</g>
</svg>
