<svg width="40" height="40" viewBox="0 0 40 40" fill="none" xmlns="http://www.w3.org/2000/svg">
<rect width="40" height="40" rx="8" fill="#42A1CF"/>
<mask id="mask0_80_759" style="mask-type:alpha" maskUnits="userSpaceOnUse" x="8" y="8" width="24" height="24">
<rect x="8" y="8" width="24" height="24" fill="#D9D9D9"/>
</mask>
<g mask="url(#mask0_80_759)">
<path d="M10 28C9.71667 28 9.47917 27.9042 9.2875 27.7125C9.09583 27.5208 9 27.2833 9 27V24C9 23.45 9.19583 22.9792 9.5875 22.5875C9.97917 22.1958 10.45 22 11 22H14.275C14.6083 22 14.925 22.0833 15.225 22.25C15.525 22.4167 15.7667 22.6417 15.95 22.925C16.4333 23.575 17.0292 24.0833 17.7375 24.45C18.4458 24.8167 19.2 25 20 25C20.8167 25 21.5792 24.8167 22.2875 24.45C22.9958 24.0833 23.5833 23.575 24.05 22.925C24.2667 22.6417 24.5208 22.4167 24.8125 22.25C25.1042 22.0833 25.4083 22 25.725 22H29C29.55 22 30.0208 22.1958 30.4125 22.5875C30.8042 22.9792 31 23.45 31 24V27C31 27.2833 30.9042 27.5208 30.7125 27.7125C30.5208 27.9042 30.2833 28 30 28H25C24.7167 28 24.4792 27.9042 24.2875 27.7125C24.0958 27.5208 24 27.2833 24 27V25.725C23.4167 26.1417 22.7875 26.4583 22.1125 26.675C21.4375 26.8917 20.7333 27 20 27C19.2833 27 18.5833 26.8875 17.9 26.6625C17.2167 26.4375 16.5833 26.1167 16 25.7V27C16 27.2833 15.9042 27.5208 15.7125 27.7125C15.5208 27.9042 15.2833 28 15 28H10ZM20 24C19.3667 24 18.7667 23.8542 18.2 23.5625C17.6333 23.2708 17.1583 22.8667 16.775 22.35C16.4917 21.9333 16.1375 21.6042 15.7125 21.3625C15.2875 21.1208 14.825 21 14.325 21C14.6917 20.3833 15.4667 19.8958 16.65 19.5375C17.8333 19.1792 18.95 19 20 19C21.05 19 22.1667 19.1792 23.35 19.5375C24.5333 19.8958 25.3083 20.3833 25.675 21C25.1917 21 24.7333 21.1208 24.3 21.3625C23.8667 21.6042 23.5083 21.9333 23.225 22.35C22.8583 22.8833 22.3917 23.2917 21.825 23.575C21.2583 23.8583 20.65 24 20 24ZM12 21C11.1667 21 10.4583 20.7083 9.875 20.125C9.29167 19.5417 9 18.8333 9 18C9 17.1667 9.29167 16.4583 9.875 15.875C10.4583 15.2917 11.1667 15 12 15C12.8333 15 13.5417 15.2917 14.125 15.875C14.7083 16.4583 15 17.1667 15 18C15 18.8333 14.7083 19.5417 14.125 20.125C13.5417 20.7083 12.8333 21 12 21ZM28 21C27.1667 21 26.4583 20.7083 25.875 20.125C25.2917 19.5417 25 18.8333 25 18C25 17.1667 25.2917 16.4583 25.875 15.875C26.4583 15.2917 27.1667 15 28 15C28.8333 15 29.5417 15.2917 30.125 15.875C30.7083 16.4583 31 17.1667 31 18C31 18.8333 30.7083 19.5417 30.125 20.125C29.5417 20.7083 28.8333 21 28 21ZM20 18C19.1667 18 18.4583 17.7083 17.875 17.125C17.2917 16.5417 17 15.8333 17 15C17 14.1667 17.2917 13.4583 17.875 12.875C18.4583 12.2917 19.1667 12 20 12C20.8333 12 21.5417 12.2917 22.125 12.875C22.7083 13.4583 23 14.1667 23 15C23 15.8333 22.7083 16.5417 22.125 17.125C21.5417 17.7083 20.8333 18 20 18Z" fill="white"/>
</g>
</svg>
