<svg width="40" height="40" viewBox="0 0 40 40" fill="none" xmlns="http://www.w3.org/2000/svg">
<rect width="40" height="40" rx="8" fill="#3EC550"/>
<mask id="mask0_92_709" style="mask-type:alpha" maskUnits="userSpaceOnUse" x="8" y="8" width="24" height="24">
<rect x="8" y="8" width="24" height="24" fill="#D9D9D9"/>
</mask>
<g mask="url(#mask0_92_709)">
<path d="M16 24H21V19H16V24ZM16 17H28V12H16V17ZM23 24H28V19H23V24ZM16 26C15.45 26 14.9792 25.8042 14.5875 25.4125C14.1958 25.0208 14 24.55 14 24V12C14 11.45 14.1958 10.9792 14.5875 10.5875C14.9792 10.1958 15.45 10 16 10H28C28.55 10 29.0208 10.1958 29.4125 10.5875C29.8042 10.9792 30 11.45 30 12V24C30 24.55 29.8042 25.0208 29.4125 25.4125C29.0208 25.8042 28.55 26 28 26H16ZM12 30C11.45 30 10.9792 29.8042 10.5875 29.4125C10.1958 29.0208 10 28.55 10 28V14H12V28H26V30H12Z" fill="white"/>
</g>
</svg>
