<svg width="56" height="56" viewBox="0 0 56 56" fill="none" xmlns="http://www.w3.org/2000/svg">
<rect width="56" height="56" rx="4" fill="#61C3FF"/>
<mask id="mask0_82_556" style="mask-type:alpha" maskUnits="userSpaceOnUse" x="8" y="8" width="40" height="40">
<rect x="8" y="8" width="40" height="40" fill="#D9D9D9"/>
</mask>
<g mask="url(#mask0_82_556)">
<path d="M23.0139 44.6668C22.699 44.6668 22.419 44.5812 22.1736 44.4099C21.9282 44.2386 21.7592 44.0002 21.6666 43.6946L17.3889 29.389H11.3333V26.6113H18.4166C18.7222 26.6113 18.9977 26.6969 19.243 26.8682C19.4884 27.0395 19.6574 27.2779 19.75 27.5835L22.7778 37.6807L28.3194 12.4446C28.3842 12.1113 28.5416 11.8428 28.7916 11.639C29.0416 11.4353 29.3333 11.3335 29.6666 11.3335C30 11.3335 30.2916 11.4284 30.5416 11.6182C30.7916 11.808 30.9491 12.0696 31.0139 12.403L34.8333 29.3752L37.5 20.639C37.5926 20.3335 37.7616 20.0951 38.0069 19.9238C38.2523 19.7525 38.5278 19.6668 38.8333 19.6668C39.1389 19.6668 39.4074 19.7455 39.6389 19.903C39.8704 20.0603 40.037 20.2779 40.1389 20.5557L42.3333 26.6113H44.6666V29.389H41.3333C41.0278 29.389 40.7592 29.3057 40.5278 29.139C40.2963 28.9724 40.1296 28.7502 40.0278 28.4724L38.9305 25.4585L35.9722 35.3613C35.8796 35.6668 35.7083 35.9122 35.4583 36.0974C35.2083 36.2826 34.9259 36.3613 34.6111 36.3335C34.2963 36.3057 34.0185 36.1969 33.7778 36.0071C33.537 35.8173 33.3842 35.5696 33.3194 35.264L29.6666 19.264L24.3472 43.5974C24.2824 43.9122 24.1273 44.1622 23.8819 44.3474C23.6365 44.5326 23.3472 44.6391 23.0139 44.6668Z" fill="white"/>
</g>
</svg>
