<svg width="40" height="40" viewBox="0 0 40 40" fill="none" xmlns="http://www.w3.org/2000/svg">
<rect width="40" height="40" rx="8" fill="#FF3B30"/>
<mask id="mask0_80_678" style="mask-type:alpha" maskUnits="userSpaceOnUse" x="8" y="8" width="24" height="24">
<rect x="8" y="8" width="24" height="24" fill="#D9D9D9"/>
</mask>
<g mask="url(#mask0_80_678)">
<path d="M13.475 29C13.0583 29 12.7041 28.8542 12.4125 28.5625C12.1208 28.2709 11.975 27.9167 11.975 27.5C11.975 27.0834 12.1208 26.7292 12.4125 26.4375C12.7041 26.1459 13.0583 26 13.475 26H15.075L12.525 17.65C12.075 17.4 11.7041 17.0334 11.4125 16.55C11.1208 16.0667 10.975 15.55 10.975 15C10.975 14.1667 11.2666 13.4584 11.85 12.875C12.4333 12.2917 13.1416 12 13.975 12C14.625 12 15.2041 12.1875 15.7125 12.5625C16.2208 12.9375 16.575 13.4167 16.775 14H19.975V13C19.975 12.7167 20.0708 12.4792 20.2625 12.2875C20.4541 12.0959 20.6916 12 20.975 12C21.125 12 21.2708 12.0334 21.4125 12.1C21.5541 12.1667 21.675 12.2667 21.775 12.4L23.475 10.8C23.625 10.65 23.8041 10.5542 24.0125 10.5125C24.2208 10.4709 24.425 10.5 24.625 10.6L28.525 12.4C28.725 12.5 28.8625 12.6459 28.9375 12.8375C29.0125 13.0292 29.0083 13.2167 28.925 13.4C28.825 13.6 28.6791 13.7292 28.4875 13.7875C28.2958 13.8459 28.1083 13.8334 27.925 13.75L24.325 12.1L21.975 14.3V15.7L24.325 17.85L27.925 16.2C28.1083 16.1167 28.3 16.1084 28.5 16.175C28.7 16.2417 28.8416 16.3667 28.925 16.55C29.025 16.75 29.0333 16.9417 28.95 17.125C28.8666 17.3084 28.725 17.45 28.525 17.55L24.625 19.4C24.425 19.5 24.2208 19.5292 24.0125 19.4875C23.8041 19.4459 23.625 19.35 23.475 19.2L21.775 17.6C21.675 17.7 21.5541 17.7917 21.4125 17.875C21.2708 17.9584 21.125 18 20.975 18C20.6916 18 20.4541 17.9042 20.2625 17.7125C20.0708 17.5209 19.975 17.2834 19.975 17V16H16.775C16.725 16.1334 16.6708 16.2584 16.6125 16.375C16.5541 16.4917 16.475 16.6167 16.375 16.75L21.375 26H23.475C23.8916 26 24.2458 26.1459 24.5375 26.4375C24.8291 26.7292 24.975 27.0834 24.975 27.5C24.975 27.9167 24.8291 28.2709 24.5375 28.5625C24.2458 28.8542 23.8916 29 23.475 29H13.475ZM13.975 16C14.2583 16 14.4958 15.9042 14.6875 15.7125C14.8791 15.5209 14.975 15.2834 14.975 15C14.975 14.7167 14.8791 14.4792 14.6875 14.2875C14.4958 14.0959 14.2583 14 13.975 14C13.6916 14 13.4541 14.0959 13.2625 14.2875C13.0708 14.4792 12.975 14.7167 12.975 15C12.975 15.2834 13.0708 15.5209 13.2625 15.7125C13.4541 15.9042 13.6916 16 13.975 16ZM17.125 26H19.075L14.775 18H14.675L17.125 26Z" fill="white"/>
</g>
</svg>
