<svg width="40" height="40" viewBox="0 0 40 40" fill="none" xmlns="http://www.w3.org/2000/svg">
<rect width="40" height="40" rx="8" fill="#FF3B30"/>
<mask id="mask0_92_964" style="mask-type:alpha" maskUnits="userSpaceOnUse" x="8" y="8" width="24" height="24">
<rect x="8" y="8" width="24" height="24" fill="#D9D9D9"/>
</mask>
<g mask="url(#mask0_92_964)">
<path d="M17 29C16.45 29 15.9792 28.8042 15.5875 28.4125C15.1958 28.0208 15 27.55 15 27V17C15 16.45 15.1958 15.9792 15.5875 15.5875C15.9792 15.1958 16.45 15 17 15H27C27.55 15 28.0208 15.1958 28.4125 15.5875C28.8042 15.9792 29 16.45 29 17V27C29 27.55 28.8042 28.0208 28.4125 28.4125C28.0208 28.8042 27.55 29 27 29H17ZM18 19H26C26.2833 19 26.5208 18.9042 26.7125 18.7125C26.9042 18.5208 27 18.2833 27 18C27 17.7167 26.9042 17.4792 26.7125 17.2875C26.5208 17.0958 26.2833 17 26 17H18C17.7167 17 17.4792 17.0958 17.2875 17.2875C17.0958 17.4792 17 17.7167 17 18C17 18.2833 17.0958 18.5208 17.2875 18.7125C17.4792 18.9042 17.7167 19 18 19ZM21 23H23V21H21V23ZM21 27H23V25H21V27ZM17 23H19V21H17V23ZM25 23H27V21H25V23ZM17 27H19V25H17V27ZM25 27H27V25H25V27ZM13 25C12.45 25 11.9792 24.8042 11.5875 24.4125C11.1958 24.0208 11 23.55 11 23V13C11 12.45 11.1958 11.9792 11.5875 11.5875C11.9792 11.1958 12.45 11 13 11H23C23.55 11 24.0208 11.1958 24.4125 11.5875C24.8042 11.9792 25 12.45 25 13V14H23V13H13V23H14V25H13Z" fill="white"/>
</g>
</svg>
