<svg width="40" height="40" viewBox="0 0 40 40" fill="none" xmlns="http://www.w3.org/2000/svg">
<rect width="40" height="40" rx="8" fill="#2EABE2"/>
<mask id="mask0_199_2595" style="mask-type:alpha" maskUnits="userSpaceOnUse" x="8" y="8" width="24" height="24">
<rect x="8" y="8" width="24" height="24" fill="#D9D9D9"/>
</mask>
<g mask="url(#mask0_199_2595)">
<path d="M26.5 28C26.0833 28 25.7292 27.8542 25.4375 27.5625C25.1458 27.2708 25 26.9167 25 26.5V13.5C25 13.0833 25.1458 12.7292 25.4375 12.4375C25.7292 12.1458 26.0833 12 26.5 12C26.9167 12 27.2708 12.1458 27.5625 12.4375C27.8542 12.7292 28 13.0833 28 13.5V26.5C28 26.9167 27.8542 27.2708 27.5625 27.5625C27.2708 27.8542 26.9167 28 26.5 28ZM14.5 28C14.3 28 14.1083 27.9625 13.925 27.8875C13.7417 27.8125 13.5792 27.7042 13.4375 27.5625C13.2958 27.4208 13.1875 27.2583 13.1125 27.075C13.0375 26.8917 13 26.7 13 26.5V23.5C13 23.0833 13.1458 22.7292 13.4375 22.4375C13.7292 22.1458 14.0833 22 14.5 22C14.9167 22 15.2708 22.1458 15.5625 22.4375C15.8542 22.7292 16 23.0833 16 23.5V26.5C16 26.7 15.9625 26.8917 15.8875 27.075C15.8125 27.2583 15.7042 27.4208 15.5625 27.5625C15.4208 27.7042 15.2583 27.8125 15.075 27.8875C14.8917 27.9625 14.7 28 14.5 28ZM20.5 28C20.0833 28 19.7292 27.8542 19.4375 27.5625C19.1458 27.2708 19 26.9167 19 26.5V18.5C19 18.0833 19.1458 17.7292 19.4375 17.4375C19.7292 17.1458 20.0833 17 20.5 17C20.9167 17 21.2708 17.1458 21.5625 17.4375C21.8542 17.7292 22 18.0833 22 18.5V26.5C22 26.9167 21.8542 27.2708 21.5625 27.5625C21.2708 27.8542 20.9167 28 20.5 28Z" fill="white"/>
</g>
</svg>
