<svg width="40" height="40" viewBox="0 0 40 40" fill="none" xmlns="http://www.w3.org/2000/svg">
<rect width="40" height="40" rx="8" fill="#FF3B30"/>
<mask id="mask0_92_975" style="mask-type:alpha" maskUnits="userSpaceOnUse" x="8" y="8" width="24" height="24">
<rect x="8" y="8" width="24" height="24" fill="#D9D9D9"/>
</mask>
<g mask="url(#mask0_92_975)">
<path d="M12 28C11.45 28 10.9792 27.8042 10.5875 27.4125C10.1958 27.0208 10 26.55 10 26V14C10 13.45 10.1958 12.9792 10.5875 12.5875C10.9792 12.1958 11.45 12 12 12H17.175C17.4417 12 17.6958 12.05 17.9375 12.15C18.1792 12.25 18.3917 12.3917 18.575 12.575L20 14H28C28.55 14 29.0208 14.1958 29.4125 14.5875C29.8042 14.9792 30 15.45 30 16V26C30 26.55 29.8042 27.0208 29.4125 27.4125C29.0208 27.8042 28.55 28 28 28H12ZM24 26H28V16H24V18H26V20H24V22H26V24H24V26ZM12 26H22V24H24V22H22V20H24V18H22V16H19.175L17.175 14H12V26Z" fill="white"/>
</g>
</svg>
